# xmcd CD database file
#
# Track frame offsets:
#	150
#	5190
#	73692
#	117892
#	155283
#	179046
#	186088
#	196453
#	217399
#	229242
#	242721
#	255008
#
# Disc length: 3675 seconds
#
# Revision: 0
# Processed by: cddbd v1.5.1PL0 Copyright (c) Steve Scherf et al.
# Submitted via: CDex 1.51
#
DISCID=ae0e590c
DTITLE=ALcot - Interchannel - Clover Heart's 〜looking for happiness〜 初回限定版特典 Radio＆SoundCD
DYEAR=2004
DGENRE=Game
TTITLE0=ラジオ“クローバーステーション”
TTITLE1=ラジオ“クローバーステーション”
TTITLE2=ラジオ“クローバーステーション”
TTITLE3=ラジオ“クローバーステーション”
TTITLE4=ラジオ“クローバーステーション”
TTITLE5=ラジオ“クローバーステーション”
TTITLE6=ラジオ“クローバーステーション”
TTITLE7=真理絵 - Clover Heart's
TTITLE8=小さな天使、舞い降りて
TTITLE9=その笑みにご用心
TTITLE10=あと少し、もう少し
TTITLE11=Clover Heart's (off vocal ver.)
EXTD=YEAR: 2004
EXTT0=
EXTT1=
EXTT2=
EXTT3=
EXTT4=
EXTT5=
EXTT6=
EXTT7=
EXTT8=
EXTT9=
EXTT10=
EXTT11=
PLAYORDER=
